<?xml version="1.0" encoding="UTF-8"?>
<svg width="1800px" height="900px" viewBox="0 0 1800 900" version="1.1" xmlns="http://www.w3.org/2000/svg" xmlns:xlink="http://www.w3.org/1999/xlink">
    <!-- Generator: Sketch 52.5 (67469) - http://www.bohemiancoding.com/sketch -->
    <title>Artboard</title>
    <desc>Created with Sketch.</desc>
    <g id="Artboard" stroke="none" stroke-width="1" fill="none" fill-rule="evenodd">
        <rect id="Rectangle" fill="#6EA6FF" x="0" y="0" width="225" height="450"></rect>
        <rect id="Rectangle-Copy-12" fill="#6EA6FF" x="1575" y="450" width="225" height="450"></rect>
        <rect id="Rectangle-Copy" fill="#0062FF" x="225" y="0" width="225" height="225"></rect>
        <rect id="Rectangle-Copy-13" fill="#0062FF" x="1350" y="450" width="225" height="225"></rect>
        <rect id="Rectangle-Copy-5" fill="#051243" x="225" y="225" width="225" height="225"></rect>
        <rect id="Rectangle-Copy-14" fill="#051243" x="1350" y="675" width="225" height="225"></rect>
        <rect id="Rectangle-Copy-6" fill="#6EA6FF" x="900" y="0" width="450" height="450"></rect>
        <polygon id="Rectangle-Copy-9" fill="#97C1FF" points="900 450 1350 450 900 900"></polygon>
        <polygon id="Rectangle-Copy-10" fill="#054ADA" transform="translate(1125.000000, 675.000000) rotate(180.000000) translate(-1125.000000, -675.000000) " points="900 450 1350 450 900 900"></polygon>
        <rect id="Rectangle-Copy-2" fill="#C9DEFF" x="0" y="450" width="450" height="225"></rect>
        <rect id="Rectangle-Copy-3" fill="#0062FF" x="0" y="675" width="450" height="225"></rect>
        <rect id="Rectangle-Copy-8" fill="#0062FF" transform="translate(1575.000000, 112.500000) scale(1, -1) translate(-1575.000000, -112.500000) " x="1350" y="0" width="450" height="225"></rect>
        <rect id="Rectangle-Copy-11" fill="#C9DEFF" transform="translate(1575.000000, 337.500000) scale(1, -1) translate(-1575.000000, -337.500000) " x="1350" y="225" width="450" height="225"></rect>
        <rect id="Rectangle-Copy-4" fill="#0530AD" transform="translate(675.000000, 450.000000) scale(-1, 1) rotate(90.000000) translate(-675.000000, -450.000000) " x="225" y="225" width="900" height="450"></rect>
        <path d="M563,563 C563,439.288349 663.738064,339 788,339 C912.263935,339 1013,439.288349 1013,563" id="Fill-11-Copy" fill="#0062FF" transform="translate(788.000000, 451.000000) scale(-1, 1) rotate(90.000000) translate(-788.000000, -451.000000) "></path>
        <path d="M113,900 C113,838.144175 163.369032,788 225.5,788 C287.631968,788 338,838.144175 338,900" id="Fill-11" fill="#051243"></path>
        <path d="M1463,113 C1463,51.1441746 1513.36903,1 1575.5,1 C1637.63197,1 1688,51.1441746 1688,113" id="Fill-11-Copy-2" fill="#051243" transform="translate(1575.500000, 57.000000) scale(1, -1) translate(-1575.500000, -57.000000) "></path>
        <rect id="Rectangle-Copy-7" fill="#0530AD" x="900" y="225" width="225" height="225"></rect>
        <rect id="Rectangle" fill-opacity="0.7" fill="#0062FF" x="0" y="0" width="1800" height="900"></rect>
    </g>
</svg>